<svg width="46" height="106" viewBox="0 0 46 106" fill="none" xmlns="http://www.w3.org/2000/svg">
<g clip-path="url(#clip0_698_178)">
<path d="M35.1838 0.0399933H10.7857C4.82886 0.0399933 0 4.94737 0 11.0006V94.9684C0 101.027 4.82385 105.943 10.7856 105.96H35.1837C41.1504 105.943 45.983 101.032 45.9999 94.9684V11.0006C45.9662 4.94939 41.1382 0.0571523 35.1838 0.0399933Z" fill="white"/>
<path d="M29.1304 19.4317V19.7753C29.8677 20.2125 30.2364 20.5871 31.0046 21.0555C33.0019 22.3358 35.46 24.5841 35.1221 32.3907C35.6753 34.077 35.9209 37.4182 36.4435 38.5112C37.4882 40.6033 38.1642 41.9461 38.4715 43.9446C38.4715 43.9446 38.7789 47.0048 39.1474 47.2233C41.2063 47.6918 40.6224 47.9103 40.8989 48.2538C41.1756 48.5972 42.4048 48.6598 42.4048 49.7838C42.7864 50.3282 43.1062 50.9147 43.3573 51.5325V11.0006C43.3573 6.39085 39.6892 2.64912 35.1529 2.63196H27.2557C28.5157 3.10034 29.2224 3.6311 29.6527 4.47433C30.6666 4.56796 31.8958 6.87882 29.9907 10.3137C30.8205 10.8758 30.175 11.7189 29.5603 12.7181C29.376 13.0303 29.1917 13.5925 28.6383 13.5612C27.9317 15.0913 27.0714 16.5902 26.3953 16.6838C26.2108 16.9336 26.0574 17.5895 26.3647 17.9017C27.3622 18.2553 28.2963 18.7722 29.1304 19.4317ZM43.4188 57.0595C41.9096 60.8854 37.6341 62.7434 33.8694 61.2094C30.1047 59.6757 28.2763 55.3311 29.7856 51.5053C30.6655 49.2744 32.5492 47.6107 34.8457 47.0357C33.9852 44.8812 32.2031 41.384 31.6807 40.2285C31.1582 39.073 29.9599 31.9846 29.7141 30.5795C29.6527 30.2671 26.5491 32.422 26.5491 32.5467C26.5491 32.6716 24.2138 38.4484 24.1217 38.7607C24.0293 39.073 24.0601 39.7289 24.0601 39.7289C24.0601 39.7289 25.1047 39.8536 25.7194 41.7274C26.334 43.6009 28.147 50.4396 28.147 50.4396C28.147 50.4396 27.6553 50.9705 27.6246 50.9391C29.9599 58.8394 29.1304 62.2431 30.175 64.554C31.4963 67.8327 31.8343 67.3956 32.9712 70.1435C33.7703 72.1417 34.6613 80.011 34.9687 80.3546C36.2284 81.9779 36.9047 83.2272 36.9047 84.1327C36.9047 85.0385 35.829 87.7551 36.2284 89.3474C36.4741 90.2844 36.5973 92.3455 36.9965 92.7511C37.3961 93.1572 37.3961 93.5317 37.181 93.8753C37.0981 94.0052 37.0556 94.1577 37.058 94.3124C37.7646 96.7794 39.9772 101.026 36.3516 103.243H36.4436C40.4539 102.61 43.4059 99.0925 43.3882 94.9682V57.0594L43.4188 57.0595Z" fill="#DA1A32"/>
<path d="M34.139 93.3449C32.8175 92.1579 33.7084 91.6274 33.6469 91.1588C32.7866 87.5052 29.8983 85.2569 31.4038 84.0703C31.0353 82.8526 30.2978 81.3538 30.3283 81.3538C25.8727 78.7619 22.0627 74.515 21.4173 73.8904C20.7721 73.2659 19.2971 72.1417 19.0512 71.4549C17.9758 70.4554 12.7211 62.8677 11.4921 60.0573L9.34107 59.7452C8.35787 55.717 5.13133 52.3132 5.03919 48.2849C5.00865 46.7548 5.71533 43.4762 5.99185 42.8202C6.26837 42.1646 7.49756 41.0716 7.49756 41.0716V39.9787C2.82692 40.1035 4.17899 39.6351 3.38007 37.7928C2.82692 36.5125 3.22633 36.2315 3.41081 35.3571C4.02535 32.7341 6.11484 28.7059 6.97526 26.8947C7.25189 25.9579 8.14295 23.741 8.14295 23.741C11.6153 16.5589 12.9058 17.0897 17.0542 16.6837L17.2692 16.3714C21.4175 16.1841 20.7415 15.8719 21.3253 11.8124C20.7107 12.062 20.557 10.532 20.557 10.532C20.2191 8.22136 21.1716 8.65849 21.6325 8.62714C21.7246 4.84887 22.1242 3.66214 24.7974 2.60061H10.7855C6.23721 2.60061 2.55029 6.34742 2.55029 10.9692V94.937C2.55029 99.5642 6.23231 103.32 10.7855 103.337H35.1836C32.3872 101.807 34.0465 98.9029 34.139 93.3449Z" fill="#00438C"/>
<path d="M15.3997 98.0898V82.8821H18.295C19.978 82.8821 21.0094 83.8014 21.0094 85.9347V88.1965C21.0094 89.5757 20.5932 90.2743 20.0142 90.6242C20.5932 91.0284 21.0094 91.7088 21.0094 92.8673V95.0741C21.0094 97.1519 19.9056 98.0899 18.295 98.0899L15.3997 98.0898ZM17.3904 91.4881V96.1775H18.1502C18.838 96.1775 19.0188 95.8094 19.0188 95.0922V92.5178C19.0188 91.7638 18.7837 91.4879 18.1324 91.4879H17.3904V91.4881ZM17.3904 84.7947V89.8147H18.1324C18.838 89.8147 19.0188 89.5569 19.0188 88.7299V85.806C19.0188 85.1071 18.8019 84.7761 18.1502 84.7761H17.3904V84.7947ZM25.7144 95.0004H23.9048L23.6513 98.0898H21.6428L23.4522 82.8821H26.3114L28.0485 98.0898H25.9494L25.7144 95.0004ZM24.8277 84.5923H24.7192C24.5923 86.4312 24.3392 89.6312 24.267 90.6604L24.0315 93.2722H25.5879L25.3521 90.6604C25.2803 89.6125 24.9906 86.4312 24.8277 84.5923ZM9.4827 98.0898H7.74561V82.8821H10.4959L12.7218 95.3316C12.5407 92.3526 12.2875 88.7478 12.2875 85.6772V82.8638H14.0246V98.0712H11.4912L9.26527 85.8978C9.41015 88.7117 9.46456 90.9546 9.46456 93.2901V98.0897H9.4827V98.0898Z" fill="white"/>
</g>
<defs>
<clipPath id="clip0_698_178">
<rect width="46" height="106" fill="white"/>
</clipPath>
</defs>
</svg>
